<?xml version="1.0" encoding="UTF-8"?>
<svg version="1.1" xmlns="http://www.w3.org/2000/svg" width="264" height="314">
<path d="M0 0 C1.16473343 -0.0087616 2.32946686 -0.01752319 3.52949524 -0.02655029 C7.37933605 -0.04855644 11.22802838 -0.03398647 15.07788086 -0.01708984 C17.75159638 -0.02045737 20.42527698 -0.02530163 23.09898376 -0.03158569 C28.70185802 -0.04067465 34.30440242 -0.02871325 39.90722656 -0.00488281 C46.38257632 0.02234087 52.85713923 0.01350322 59.33247 -0.01401484 C64.89613769 -0.03671099 70.45956865 -0.03990411 76.02326769 -0.02682149 C79.34453864 -0.01903118 82.66535902 -0.01994003 85.98661995 -0.03450394 C89.68823932 -0.04717418 93.38833794 -0.02788618 97.08984375 0 C98.18969604 -0.01012115 99.28954834 -0.02024231 100.42272949 -0.03067017 C107.88868594 0.0737608 107.88868594 0.0737608 111.06344604 3.15016174 C111.76475143 4.38608315 111.76475143 4.38608315 112.48022461 5.64697266 C114.52831827 6.34807862 114.52831827 6.34807862 116.70288086 6.21337891 C117.88140625 6.22981445 117.88140625 6.22981445 119.08374023 6.24658203 C119.89520508 6.23433594 120.70666992 6.22208984 121.54272461 6.20947266 C127.77054048 6.14547139 127.77054048 6.14547139 130.48022461 6.64697266 C132.13647461 8.64697266 132.13647461 8.64697266 133.48022461 10.64697266 C136.80604613 11.12828451 139.99364537 11.08438628 143.35131836 11.08056641 C147.39605375 11.81275945 148.13207282 13.4081426 150.48022461 16.64697266 C152.80840425 17.01457997 155.14206311 17.34938847 157.48022461 17.64697266 C157.95459961 18.30697266 158.42897461 18.96697266 158.91772461 19.64697266 C159.69116211 20.63697266 159.69116211 20.63697266 160.48022461 21.64697266 C164.09326196 22.12305873 164.09326196 22.12305873 166.44506836 22.08056641 C169.83647383 23.02443165 170.67822615 24.63929155 172.48022461 27.64697266 C173.07586393 31.43851562 173.00217661 35.1989281 172.96124268 39.02998352 C172.96466038 40.19398452 172.96807807 41.35798551 172.97159934 42.55725926 C172.97704784 45.78424915 172.9645516 49.010596 172.94448709 52.23750985 C172.92721047 55.71870845 172.93305894 59.19987716 172.93609619 62.68110657 C172.93819343 68.71123162 172.9256453 74.74118353 172.90314484 80.77126503 C172.87063425 89.48971645 172.86021879 98.20808416 172.85519287 106.92658963 C172.84643873 121.07179406 172.81981995 135.21690622 172.78198242 149.36206055 C172.7452654 163.10261582 172.716998 176.8431459 172.69995117 190.58374023 C172.69887918 191.43937111 172.69780719 192.29500198 172.69670272 193.17656106 C172.68838501 199.86817364 172.68055732 206.55978677 172.67288446 213.25140011 C172.63515087 246.05000899 172.55467754 278.84838687 172.48022461 311.64697266 C89.32022461 311.64697266 6.16022461 311.64697266 -79.51977539 311.64697266 C-79.56102539 270.60322266 -79.60227539 229.55947266 -79.64477539 187.27197266 C-79.6629834 174.29062988 -79.68119141 161.30928711 -79.69995117 147.93457031 C-79.70898438 132.13793945 -79.70898438 132.13793945 -79.71066284 124.75350952 C-79.7125335 119.57274558 -79.71989334 114.39202313 -79.73092651 109.21127319 C-79.74495398 102.61481582 -79.74876911 96.01840632 -79.74591994 89.42193103 C-79.74651624 86.99359071 -79.7505181 84.56524844 -79.75820565 82.13692021 C-79.76806821 78.8713649 -79.76578688 75.60604467 -79.76028442 72.34048462 C-79.76610975 71.37773809 -79.77193508 70.41499157 -79.77793694 69.42307091 C-79.77395519 68.55144939 -79.76997345 67.67982788 -79.76587105 66.78179359 C-79.76663049 66.02615014 -79.76738993 65.27050668 -79.76817238 64.49196494 C-79.51977539 62.64697266 -79.51977539 62.64697266 -77.51977539 60.64697266 C-75.19159575 60.27936535 -72.85793689 59.94455685 -70.51977539 59.64697266 C-68.24127104 57.36846831 -69.27106045 50.70656268 -69.26586914 47.43603516 C-69.1295315 43.03017675 -69.03605271 41.23979583 -66.04321289 37.80322266 C-65.21047852 37.09166016 -64.37774414 36.38009766 -63.51977539 35.64697266 C-62.82246733 33.32261245 -62.15065388 30.9902356 -61.51977539 28.64697266 C-60.52977539 28.31697266 -59.53977539 27.98697266 -58.51977539 27.64697266 C-58.23102539 27.06947266 -57.94227539 26.49197266 -57.64477539 25.89697266 C-56.13728006 22.88198199 -53.94967863 20.95226548 -51.51977539 18.64697266 C-51.18977539 18.31697266 -50.85977539 17.98697266 -50.51977539 17.64697266 C-49.42665039 17.56447266 -48.33352539 17.48197266 -47.20727539 17.39697266 C-43.38867511 17.03035722 -43.38867511 17.03035722 -41.51977539 14.14697266 C-38.8084508 10.75781692 -36.69791396 11.17873575 -32.51977539 10.64697266 C-32.08536133 9.98697266 -31.65094727 9.32697266 -31.20336914 8.64697266 C-29.51977539 6.64697266 -29.51977539 6.64697266 -26.55883789 6.21337891 C-24.28800604 6.2107807 -22.01716972 6.21076875 -19.74633789 6.21337891 C-16.33631667 5.98269031 -16.33631667 5.98269031 -14.5381012 3.15200806 C-9.97484413 -0.63523071 -5.76089419 -0.05311114 0 0 Z " fill="#545F62" transform="translate(91.519775390625,2.35302734375)"/>
<path d="M0 0 C1.16473343 -0.0087616 2.32946686 -0.01752319 3.52949524 -0.02655029 C7.37933605 -0.04855644 11.22802838 -0.03398647 15.07788086 -0.01708984 C17.75159638 -0.02045737 20.42527698 -0.02530163 23.09898376 -0.03158569 C28.70185802 -0.04067465 34.30440242 -0.02871325 39.90722656 -0.00488281 C46.38257632 0.02234087 52.85713923 0.01350322 59.33247 -0.01401484 C64.89613769 -0.03671099 70.45956865 -0.03990411 76.02326769 -0.02682149 C79.34453864 -0.01903118 82.66535902 -0.01994003 85.98661995 -0.03450394 C89.68823932 -0.04717418 93.38833794 -0.02788618 97.08984375 0 C98.18969604 -0.01012115 99.28954834 -0.02024231 100.42272949 -0.03067017 C107.88868594 0.0737608 107.88868594 0.0737608 111.06344604 3.15016174 C111.76475143 4.38608315 111.76475143 4.38608315 112.48022461 5.64697266 C114.52831827 6.34807862 114.52831827 6.34807862 116.70288086 6.21337891 C117.88140625 6.22981445 117.88140625 6.22981445 119.08374023 6.24658203 C119.89520508 6.23433594 120.70666992 6.22208984 121.54272461 6.20947266 C127.77054048 6.14547139 127.77054048 6.14547139 130.48022461 6.64697266 C132.13647461 8.64697266 132.13647461 8.64697266 133.48022461 10.64697266 C136.80604613 11.12828451 139.99364537 11.08438628 143.35131836 11.08056641 C147.39605375 11.81275945 148.13207282 13.4081426 150.48022461 16.64697266 C152.80840425 17.01457997 155.14206311 17.34938847 157.48022461 17.64697266 C157.95459961 18.30697266 158.42897461 18.96697266 158.91772461 19.64697266 C159.69116211 20.63697266 159.69116211 20.63697266 160.48022461 21.64697266 C164.09326196 22.12305873 164.09326196 22.12305873 166.44506836 22.08056641 C169.83647383 23.02443165 170.67822615 24.63929155 172.48022461 27.64697266 C173.07586393 31.43851562 173.00217661 35.1989281 172.96124268 39.02998352 C172.96466038 40.19398452 172.96807807 41.35798551 172.97159934 42.55725926 C172.97704784 45.78424915 172.9645516 49.010596 172.94448709 52.23750985 C172.92721047 55.71870845 172.93305894 59.19987716 172.93609619 62.68110657 C172.93819343 68.71123162 172.9256453 74.74118353 172.90314484 80.77126503 C172.87063425 89.48971645 172.86021879 98.20808416 172.85519287 106.92658963 C172.84643873 121.07179406 172.81981995 135.21690622 172.78198242 149.36206055 C172.7452654 163.10261582 172.716998 176.8431459 172.69995117 190.58374023 C172.69887918 191.43937111 172.69780719 192.29500198 172.69670272 193.17656106 C172.68838501 199.86817364 172.68055732 206.55978677 172.67288446 213.25140011 C172.63515087 246.05000899 172.55467754 278.84838687 172.48022461 311.64697266 C89.32022461 311.64697266 6.16022461 311.64697266 -79.51977539 311.64697266 C-79.56102539 270.60322266 -79.60227539 229.55947266 -79.64477539 187.27197266 C-79.6629834 174.29062988 -79.68119141 161.30928711 -79.69995117 147.93457031 C-79.70898438 132.13793945 -79.70898438 132.13793945 -79.71066284 124.75350952 C-79.7125335 119.57274558 -79.71989334 114.39202313 -79.73092651 109.21127319 C-79.74495398 102.61481582 -79.74876911 96.01840632 -79.74591994 89.42193103 C-79.74651624 86.99359071 -79.7505181 84.56524844 -79.75820565 82.13692021 C-79.76806821 78.8713649 -79.76578688 75.60604467 -79.76028442 72.34048462 C-79.76610975 71.37773809 -79.77193508 70.41499157 -79.77793694 69.42307091 C-79.77395519 68.55144939 -79.76997345 67.67982788 -79.76587105 66.78179359 C-79.76663049 66.02615014 -79.76738993 65.27050668 -79.76817238 64.49196494 C-79.51977539 62.64697266 -79.51977539 62.64697266 -77.51977539 60.64697266 C-75.19159575 60.27936535 -72.85793689 59.94455685 -70.51977539 59.64697266 C-68.24127104 57.36846831 -69.27106045 50.70656268 -69.26586914 47.43603516 C-69.1295315 43.03017675 -69.03605271 41.23979583 -66.04321289 37.80322266 C-65.21047852 37.09166016 -64.37774414 36.38009766 -63.51977539 35.64697266 C-62.82246733 33.32261245 -62.15065388 30.9902356 -61.51977539 28.64697266 C-60.52977539 28.31697266 -59.53977539 27.98697266 -58.51977539 27.64697266 C-58.23102539 27.06947266 -57.94227539 26.49197266 -57.64477539 25.89697266 C-56.13728006 22.88198199 -53.94967863 20.95226548 -51.51977539 18.64697266 C-51.18977539 18.31697266 -50.85977539 17.98697266 -50.51977539 17.64697266 C-49.42665039 17.56447266 -48.33352539 17.48197266 -47.20727539 17.39697266 C-43.38867511 17.03035722 -43.38867511 17.03035722 -41.51977539 14.14697266 C-38.8084508 10.75781692 -36.69791396 11.17873575 -32.51977539 10.64697266 C-32.08536133 9.98697266 -31.65094727 9.32697266 -31.20336914 8.64697266 C-29.51977539 6.64697266 -29.51977539 6.64697266 -26.55883789 6.21337891 C-24.28800604 6.2107807 -22.01716972 6.21076875 -19.74633789 6.21337891 C-16.33631667 5.98269031 -16.33631667 5.98269031 -14.5381012 3.15200806 C-9.97484413 -0.63523071 -5.76089419 -0.05311114 0 0 Z M-52.51977539 21.64697266 C-52.61714477 23.03257371 -52.64532957 24.42310816 -52.64561653 25.81212616 C-52.64822428 26.71569996 -52.65083203 27.61927377 -52.6535188 28.5502286 C-52.65128807 29.55438924 -52.64905735 30.55854989 -52.64675903 31.59313965 C-52.64831902 32.65092857 -52.64987901 33.70871749 -52.65148628 34.79856062 C-52.65550127 38.37239408 -52.65230471 41.94618569 -52.64916992 45.52001953 C-52.65052374 48.07023646 -52.65230356 50.6204532 -52.65447998 53.17066956 C-52.65858048 59.3959587 -52.65796095 65.62123213 -52.65506734 71.8465215 C-52.65281354 76.90369905 -52.65250068 81.96087323 -52.65359116 87.01805115 C-52.65374439 87.7364455 -52.65389762 88.45483984 -52.6540555 89.19500372 C-52.65437521 90.65417945 -52.65469942 92.11335519 -52.65502809 93.57253093 C-52.65788305 107.27131978 -52.6545956 120.97010195 -52.64922772 134.6688897 C-52.64475967 146.43583867 -52.6455356 158.20277777 -52.65014648 169.96972656 C-52.65549196 183.61782573 -52.65760836 197.26591904 -52.65453422 210.91401911 C-52.65421565 212.36797746 -52.65390128 213.82193581 -52.65359116 215.27589417 C-52.65343688 215.99136302 -52.6532826 216.70683188 -52.65312365 217.44398162 C-52.65225842 222.49801045 -52.65372152 227.55203558 -52.65607071 232.60606384 C-52.65916003 239.40211155 -52.65697636 246.19813766 -52.65117645 252.99418449 C-52.64984809 255.49645392 -52.65024425 257.99872491 -52.65243912 260.50099373 C-52.65514763 263.90095271 -52.65177317 267.30085064 -52.64675903 270.70080566 C-52.64898975 271.70496631 -52.65122048 272.70912696 -52.6535188 273.74371672 C-52.65091105 274.64729052 -52.6483033 275.55086432 -52.64561653 276.48181915 C-52.64545418 277.26767788 -52.64529183 278.05353662 -52.64512455 278.86320925 C-52.71398974 280.67135815 -52.71398974 280.67135815 -51.51977539 281.64697266 C-49.89835467 281.74955373 -48.27246587 281.78217412 -46.64781189 281.78741455 C-45.06491615 281.79597977 -45.06491615 281.79597977 -43.45004272 281.80471802 C-42.28188019 281.80583588 -41.11371765 281.80695374 -39.91015625 281.80810547 C-38.68725388 281.81307037 -37.4643515 281.81803528 -36.20439148 281.82315063 C-32.83569925 281.83529287 -29.46706943 281.84272863 -26.09836268 281.84716129 C-23.98844494 281.85009234 -21.87853264 281.85419767 -19.76861763 281.85866547 C-13.15312154 281.8723622 -6.5376379 281.88201274 0.07787138 281.88586736 C7.68519837 281.89032476 15.29234357 281.90775445 22.89961535 281.93686795 C28.7928341 281.95862722 34.68600234 281.9685795 40.57926077 281.96990848 C44.09092181 281.97094831 47.60241253 281.97667544 51.11403084 281.99472809 C68.42641006 282.07866924 84.87959926 282.00373815 101.29272461 275.83447266 C101.99937256 275.5736792 102.70602051 275.31288574 103.43408203 275.04418945 C120.84112608 268.4448047 136.49858569 255.7893517 144.31616211 238.47900391 C144.70030273 237.54443359 145.08444336 236.60986328 145.48022461 235.64697266 C145.94686523 234.57833984 146.41350586 233.50970703 146.89428711 232.40869141 C153.49266594 214.95432058 153.09737856 193.69488863 145.48022461 176.64697266 C145.03420898 175.63892578 144.58819336 174.63087891 144.12866211 173.59228516 C137.66397366 160.55456153 126.1574707 149.81573637 113.44897461 142.97119141 C111.48022461 141.64697266 111.48022461 141.64697266 110.48022461 138.64697266 C111.05256836 138.40205078 111.62491211 138.15712891 112.21459961 137.90478516 C122.71565342 132.07488976 128.47257066 118.89618122 132.42163086 108.06494141 C137.06775671 89.51292841 132.86239888 70.13173305 123.29272461 54.08447266 C111.59759429 36.39054705 93.97337065 27.2298385 73.79272461 22.83447266 C71.69079438 22.42693037 69.58680775 22.02973744 67.48022461 21.64697266 C66.30256216 21.38660312 66.30256216 21.38660312 65.10110855 21.12097359 C62.52141053 20.65442135 60.17611763 20.52117159 57.55780029 20.51998901 C56.59315857 20.51716919 55.62851685 20.51434937 54.63464355 20.51144409 C53.0649884 20.51448044 53.0649884 20.51448044 51.46362305 20.51757812 C50.35259216 20.51582581 49.24156128 20.51407349 48.09686279 20.51226807 C44.42775914 20.50786965 40.75870374 20.5107797 37.08959961 20.51416016 C34.54323314 20.51348673 31.99686674 20.51251638 29.45050049 20.51126099 C24.11762825 20.5097869 18.78477333 20.51183472 13.4519043 20.51660156 C7.28008408 20.52205447 1.10829685 20.52027225 -5.06352258 20.51477516 C-10.99929852 20.50969944 -16.93506417 20.51022468 -22.87084198 20.51315689 C-25.39874018 20.51382614 -27.92663922 20.51299782 -30.45453644 20.51067734 C-33.97663139 20.50815298 -37.49866184 20.51198781 -41.02075195 20.51757812 C-42.07528564 20.51555389 -43.12981934 20.51352966 -44.21630859 20.51144409 C-45.16967102 20.51426392 -46.12303345 20.51708374 -47.10528564 20.51998901 C-47.93854496 20.52036604 -48.77180428 20.52074306 -49.63031387 20.52113152 C-51.53178813 20.4394676 -51.53178813 20.4394676 -52.51977539 21.64697266 Z " fill="#000000" transform="translate(91.519775390625,2.35302734375)"/>
<path d="M0 0 C0.93746567 -0.00571014 1.87493134 -0.01142029 2.84080505 -0.01730347 C4.39668335 -0.01898026 4.39668335 -0.01898026 5.98399353 -0.02069092 C7.61352211 -0.02813828 7.61352211 -0.02813828 9.27597046 -0.03573608 C12.89471561 -0.05041808 16.51341675 -0.05717404 20.13218689 -0.06268311 C22.64833579 -0.06843501 25.16448467 -0.07419274 27.68063354 -0.07995605 C32.29674077 -0.08913868 36.91283479 -0.09542831 41.52894884 -0.09845281 C48.28843826 -0.1029067 55.04772275 -0.12031888 61.80714995 -0.1494534 C67.68200164 -0.17388076 73.55678654 -0.18140756 79.43168449 -0.18312836 C81.91649418 -0.18613598 84.40130341 -0.19409976 86.88607979 -0.20731354 C114.61321064 -0.34408689 140.27695814 2.82189113 161.37828064 22.79278564 C176.37235112 38.22332735 181.08829399 54.48875937 180.79624939 75.55450439 C180.39457042 91.5509676 173.03522301 104.78270172 161.97984314 116.07794189 C159.65953064 118.14044189 159.65953064 118.14044189 157.65953064 118.14044189 C157.32953064 120.12044189 156.99953064 122.10044189 156.65953064 124.14044189 C156.32953064 124.14044189 155.99953064 124.14044189 155.65953064 124.14044189 C155.53578064 123.17106689 155.41203064 122.20169189 155.28453064 121.20294189 C155.07828064 120.19231689 154.87203064 119.18169189 154.65953064 118.14044189 C152.26370718 116.94253016 150.79175526 117.0197675 148.11802673 117.0269165 C146.70679031 117.0270298 146.70679031 117.0270298 145.26704407 117.02714539 C144.24929901 117.03230667 143.23155396 117.03746796 142.18296814 117.04278564 C141.14258392 117.04420059 140.10219971 117.04561554 139.0302887 117.04707336 C135.69834043 117.05268323 132.36645869 117.06523742 129.03453064 117.07794189 C126.77932327 117.08295562 124.52411486 117.08751875 122.26890564 117.09161377 C116.7324245 117.10265587 111.19598232 117.11940363 105.65953064 117.14044189 C105.39108337 118.36875732 105.12263611 119.59707275 104.84605408 120.86260986 C104.4871046 122.49430504 104.12804953 124.125977 103.76890564 125.75762939 C103.50472839 126.96842163 103.50472839 126.96842163 103.23521423 128.20367432 C101.97028691 133.93665138 100.50879278 139.56463634 98.65953064 145.14044189 C96.265157 142.74606826 96.2287854 141.71037709 95.72984314 138.41778564 C95.57628357 137.4199707 95.422724 136.42215576 95.26451111 135.394104 C95.10611755 134.29977051 94.947724 133.20543701 94.78453064 132.07794189 C94.61453552 130.94429199 94.44454041 129.81064209 94.26939392 128.64263916 C92.64650863 117.57229628 91.31303572 106.46623684 90.05455017 95.34918213 C89.26900518 88.50413527 88.33038782 81.83126378 86.65953064 75.14044189 C84.34953064 74.81044189 82.03953064 74.48044189 79.65953064 74.14044189 C76.5180435 80.11461708 74.09399349 86.11561264 71.87437439 92.48419189 C71.53201248 93.45272095 71.18965057 94.42125 70.83691406 95.41912842 C69.7520623 98.49120162 68.67432128 101.56571007 67.59703064 104.64044189 C66.51462732 107.71461213 65.43076636 110.78826453 64.34643555 113.86175537 C63.67492404 115.76675985 63.00478832 117.67225006 62.33627319 119.57830811 C60.50539106 124.7903815 58.61836697 129.9750405 56.65953064 135.14044189 C53.80806901 132.28898026 53.43407297 128.91798599 52.53062439 125.10528564 C52.23878014 123.91450157 52.23878014 123.91450157 51.94104004 122.69966125 C51.31966657 120.16066607 50.70776652 117.61951505 50.09703064 115.07794189 C49.48150727 112.53312323 48.86396404 109.98883894 48.24230957 107.44551086 C47.85557847 105.86168261 47.47262391 104.27692675 47.09371948 102.69120789 C46.47038674 99.12228896 46.47038674 99.12228896 44.65953064 96.14044189 C41.76499416 95.69193112 41.76499416 95.69193112 38.65953064 96.14044189 C36.62791529 97.94937732 36.62791529 97.94937732 35.15953064 100.51544189 C34.63359314 101.32755127 34.10765564 102.13966064 33.56578064 102.97637939 C31.6580269 105.96542478 31.6580269 105.96542478 30.60362244 108.68829346 C29.2132918 111.67483113 27.9988193 113.80767693 25.65953064 116.14044189 C20.91954798 117.48077549 16.36615799 117.31408047 11.47203064 117.14044189 C8.93694355 117.11242988 6.40176874 117.09126405 3.86656189 117.07794189 C2.74741394 117.04571533 1.62826599 117.01348877 0.47520447 116.98028564 C-2.54932998 116.91383762 -2.54932998 116.91383762 -5.34046936 119.14044189 C-5.3637989 103.77242741 -5.3814488 88.40441374 -5.39228153 73.03638554 C-5.39744437 65.90122448 -5.40448684 58.76607441 -5.41590881 51.63092041 C-5.42691611 44.75154452 -5.43274553 37.87218008 -5.4353466 30.99279594 C-5.43720142 28.36162575 -5.44082309 25.73045621 -5.44619942 23.09929085 C-5.45340571 19.4281794 -5.45446048 15.75711586 -5.45399475 12.08599854 C-5.45759003 10.98620667 -5.4611853 9.88641479 -5.46488953 8.7532959 C-5.46282753 7.26192863 -5.46282753 7.26192863 -5.46072388 5.74043274 C-5.46164567 4.87118196 -5.46256746 4.00193117 -5.46351719 3.10633945 C-5.23054388 -0.61580398 -3.24141438 0.01177343 0 0 Z " fill="#545F62" transform="translate(44.34046936035156,22.85955810546875)"/>
<path d="M0 0 C0.33 0 0.66 0 1 0 C1.13336761 0.94769257 1.26673523 1.89538513 1.40414429 2.87179565 C2.66036392 11.79041186 3.92536625 20.70774357 5.19904137 29.6238842 C5.85361085 34.20811328 6.50504711 38.79274277 7.14941406 43.37841797 C7.77104713 47.80147967 8.40079087 52.22331632 9.03624344 56.64441299 C9.27758363 58.33373839 9.51596779 60.02348874 9.75138474 61.71364975 C10.08090165 64.07574587 10.42077253 66.43613038 10.76318359 68.79638672 C10.85885117 69.49985229 10.95451874 70.20331787 11.05308533 70.92810059 C11.59774874 74.88791148 11.59774874 74.88791148 14 78 C16.45709375 78.58350505 16.45709375 78.58350505 19 78 C21.5313132 74.51392092 22.60757317 71.26004775 23.5 67.078125 C23.7475 65.97082031 23.995 64.86351562 24.25 63.72265625 C24.75322467 61.39262119 25.25318454 59.06187881 25.75 56.73046875 C25.9975 55.62832031 26.245 54.52617187 26.5 53.390625 C26.7165625 52.38032227 26.933125 51.37001953 27.15625 50.32910156 C27.4346875 49.56049805 27.713125 48.79189453 28 48 C33.06585631 46.31138123 37.61385776 47.85862863 42.34375 50.12109375 C50.20001002 54.86982626 55.6882293 62.08937208 58 71 C59.02278562 80.04780725 59.04386249 89.16134158 54 97 C53.63777344 97.63164062 53.27554688 98.26328125 52.90234375 98.9140625 C48.23387128 106.35196779 41.34282076 109.23361672 33.10455322 111.38903809 C27.72007578 112.44867869 22.39973748 112.38720545 16.9296875 112.328125 C15.72684113 112.32625183 14.52399475 112.32437866 13.28469849 112.32244873 C10.76529125 112.3157709 8.24589361 112.30194266 5.7265625 112.28125 C1.85146562 112.24980905 -2.0232251 112.24024505 -5.8984375 112.234375 C-8.35156752 112.22521549 -10.80469337 112.2148431 -13.2578125 112.203125 C-15.00289597 112.19675018 -15.00289597 112.19675018 -16.78323364 112.19024658 C-17.84879486 112.18063904 -18.91435608 112.17103149 -20.01220703 112.16113281 C-20.95387726 112.15430481 -21.89554749 112.14747681 -22.86575317 112.14044189 C-25 112 -25 112 -26 111 C-26.09353163 109.31198015 -26.11744791 107.62004793 -26.11352539 105.92944336 C-26.11344986 104.84839828 -26.11337433 103.76735321 -26.11329651 102.65354919 C-26.10813522 101.4775264 -26.10297394 100.3015036 -26.09765625 99.08984375 C-26.0962413 97.89267227 -26.09482635 96.69550079 -26.09336853 95.46205139 C-26.08774979 91.62050934 -26.07519411 87.77902457 -26.0625 83.9375 C-26.05748741 81.34049563 -26.05292409 78.74349035 -26.04882812 76.14648438 C-26.03777427 69.76430321 -26.02101792 63.3821557 -26 57 C-23.03 56.505 -23.03 56.505 -20 56 C-19.83274414 55.42241943 -19.66548828 54.84483887 -19.49316406 54.24975586 C-17.44290879 47.28232796 -15.13842211 40.42052281 -12.75 33.5625 C-12.358125 32.43465088 -11.96625 31.30680176 -11.5625 30.14477539 C-9.09064525 23.05775514 -6.58088761 15.98557219 -4 8.9375 C-3.70963867 8.14093994 -3.41927734 7.34437988 -3.12011719 6.52368164 C-1.12277974 1.12277974 -1.12277974 1.12277974 0 0 Z " fill="#010101" transform="translate(124,125)"/>
<path d="M0 0 C3.375 0.25 3.375 0.25 7 1 C9.06168664 3.99563889 9.47090689 7.08285313 9.96484375 10.63671875 C10.12355957 11.75949219 10.28227539 12.88226563 10.44580078 14.0390625 C10.68919189 15.84503906 10.68919189 15.84503906 10.9375 17.6875 C11.19635986 19.54955078 11.19635986 19.54955078 11.46044922 21.44921875 C12.74142695 30.77748579 13.90505247 40.11890869 14.96069336 49.4753418 C15.74884053 56.36005634 16.80389479 63.17454645 18 70 C19.54703094 67.14535473 20.47032054 64.50309704 21.18359375 61.33984375 C21.38919922 60.46392578 21.59480469 59.58800781 21.80664062 58.68554688 C22.22787114 56.85065111 22.64452611 55.01469906 23.05664062 53.17773438 C23.26353516 52.30310547 23.47042969 51.42847656 23.68359375 50.52734375 C23.95514282 49.33226196 23.95514282 49.33226196 24.23217773 48.11303711 C25.12776552 45.6483909 25.96358345 44.63903497 28 43 C30.0489502 42.6257782 30.0489502 42.6257782 32.42382812 42.62768555 C33.31485229 42.62145676 34.20587646 42.61522797 35.12390137 42.60881042 C36.08332642 42.61802017 37.04275146 42.62722992 38.03125 42.63671875 C39.01871216 42.63622025 40.00617432 42.63572174 41.02355957 42.63520813 C43.11159273 42.63754893 45.1996287 42.64727777 47.28759766 42.66381836 C50.48756078 42.6874083 53.6866908 42.68437956 56.88671875 42.67773438 C58.91406748 42.68331117 60.94141269 42.69042105 62.96875 42.69921875 C64.40788757 42.69785164 64.40788757 42.69785164 65.87609863 42.69645691 C66.7671228 42.70598892 67.65814697 42.71552094 68.57617188 42.7253418 C69.35988159 42.72994919 70.14359131 42.73455658 70.9510498 42.73930359 C73 43 73 43 76 45 C76.3125 48.5 76.3125 48.5 76 52 C74 54 74 54 70.10107422 54.22705078 C68.41891207 54.22673341 66.73672981 54.21539396 65.0546875 54.1953125 C64.1696756 54.1924826 63.2846637 54.18965271 62.37283325 54.18673706 C59.54008588 54.1755224 56.70765216 54.1504157 53.875 54.125 C51.95703581 54.11497185 50.03906667 54.10584572 48.12109375 54.09765625 C43.41394124 54.07557889 38.70702384 54.04104045 34 54 C33.91290771 54.63349365 33.82581543 55.2669873 33.73608398 55.91967773 C32.32780166 65.23074827 30.0779383 74.28800101 27.74145508 83.40307617 C27.05658638 86.08566325 26.38846121 88.7720937 25.72070312 91.45898438 C25.28486518 93.17213253 24.84805201 94.88503294 24.41015625 96.59765625 C24.21317642 97.39760513 24.01619659 98.19755402 23.81324768 99.02174377 C22.81560896 102.84603851 22.08911592 105.47661076 19 108 C16.24917445 108.41262383 14.72756678 108.51262465 12.42141724 106.88777161 C10.38101845 104.1779361 10.22567922 101.76946699 9.75732422 98.4206543 C9.66095673 97.7568576 9.56458923 97.09306091 9.46530151 96.40914917 C9.14985803 94.21568091 8.85226779 92.02017563 8.5546875 89.82421875 C8.33828588 88.29572455 8.12075022 86.76739051 7.90213013 85.23921204 C7.32924333 81.21362206 6.77135102 77.18609308 6.2166748 73.15795898 C5.65177564 69.07348981 5.07360015 64.99090553 4.49609375 60.90820312 C3.84671987 56.3137222 3.1986831 51.71909128 2.56100464 47.12297058 C2.46341858 46.42072861 2.36583252 45.71848663 2.26528931 44.9949646 C2.00278424 43.10368118 1.74120895 41.21226877 1.47970581 39.32084656 C1.02966164 36.20533782 0.53053044 33.1027114 0 30 C-2.04539874 35.58241847 -4.09004207 41.16511286 -6.1340332 46.74804688 C-6.82719297 48.64102362 -7.52054701 50.53392925 -8.21411133 52.42675781 C-12.18675865 63.26907325 -16.14246357 74.1161133 -20 85 C-23.465 85.495 -23.465 85.495 -27 86 C-30.5603329 81.27835278 -32.04368757 77.0909058 -33.32421875 71.35546875 C-33.51595169 70.54507645 -33.70768463 69.73468414 -33.90522766 68.8997345 C-34.51082406 66.33152076 -35.09987847 63.7598801 -35.6875 61.1875 C-36.28882726 58.59807198 -36.89357365 56.00949795 -37.50190735 53.42170715 C-37.87839082 51.8157879 -38.2502581 50.20877824 -38.61711121 48.60063171 C-39.19859087 45.00355849 -39.19859087 45.00355849 -41 42 C-41.47050781 42.78246094 -41.94101563 43.56492188 -42.42578125 44.37109375 C-43.04839844 45.38300781 -43.67101562 46.39492187 -44.3125 47.4375 C-44.92738281 48.44683594 -45.54226562 49.45617187 -46.17578125 50.49609375 C-48 53 -48 53 -51 54 C-55.43293647 54.22757763 -59.86811525 54.22824778 -64.30615234 54.24023438 C-66.49224536 54.24996548 -68.67740776 54.28101319 -70.86328125 54.3125 C-72.25259859 54.31902807 -73.64192264 54.32427931 -75.03125 54.328125 C-76.92713867 54.34214355 -76.92713867 54.34214355 -78.86132812 54.35644531 C-82 54 -82 54 -83.91210938 52.63574219 C-85.476419 50.28366084 -85.41441244 48.76274957 -85 46 C-83.87768555 44.36206055 -83.87768555 44.36206055 -82 43 C-79.08911133 42.65942383 -79.08911133 42.65942383 -75.58203125 42.70703125 C-74.32841797 42.71669922 -73.07480469 42.72636719 -71.78320312 42.73632812 C-70.47287109 42.76146484 -69.16253906 42.78660156 -67.8125 42.8125 C-66.47722837 42.82755033 -65.14194063 42.84123813 -63.80664062 42.85351562 C-60.53735424 42.88892306 -57.26887907 42.9383111 -54 43 C-53.71318359 42.24678467 -53.42636719 41.49356934 -53.13085938 40.7175293 C-52.19112102 38.45927635 -51.22612181 36.56214708 -49.90625 34.51953125 C-49.51566406 33.91302734 -49.12507813 33.30652344 -48.72265625 32.68164062 C-48.31917969 32.06482422 -47.91570312 31.44800781 -47.5 30.8125 C-47.09652344 30.18408203 -46.69304687 29.55566406 -46.27734375 28.90820312 C-44.65334453 26.40252776 -43.11736466 24.11736466 -41 22 C-38.0625 21.5625 -38.0625 21.5625 -35 22 C-32.06004269 25.84604252 -31.01979658 30.06950676 -29.95703125 34.70703125 C-29.78370773 35.43242599 -29.61038422 36.15782074 -29.43180847 36.90519714 C-28.88403062 39.2058207 -28.34810984 41.50901662 -27.8125 43.8125 C-27.44153682 45.3797425 -27.06980008 46.94680212 -26.69726562 48.51367188 C-25.78921123 52.34038947 -24.89177491 56.16945741 -24 60 C-20.72041341 52.55702282 -17.86402949 44.995936 -15.1171875 37.34375 C-14.77367249 36.38766846 -14.43015747 35.43158691 -14.07623291 34.4465332 C-12.64174622 30.44657482 -11.21107526 26.44529656 -9.78759766 22.44140625 C-8.73684149 19.4899827 -7.67761296 16.54171074 -6.6171875 13.59375 C-6.13897049 12.23751526 -6.13897049 12.23751526 -5.65109253 10.85388184 C-5.34712555 10.01200317 -5.04315857 9.17012451 -4.72998047 8.30273438 C-4.46748505 7.56615601 -4.20498962 6.82957764 -3.93453979 6.07067871 C-2.89635236 3.77034582 -1.57741322 1.96183182 0 0 Z " fill="#FAFAFA" transform="translate(124,96)"/>
<path d="M0 0 C11.3540625 -0.12375 11.3540625 -0.12375 22.9375 -0.25 C26.49519165 -0.30462402 26.49519165 -0.30462402 30.12475586 -0.36035156 C32.02977598 -0.37204704 33.93480619 -0.38223683 35.83984375 -0.390625 C37.29299988 -0.4213208 37.29299988 -0.4213208 38.7755127 -0.45263672 C46.68006671 -0.45664562 52.93327626 1.52884617 59.3125 6.25 C66.08321485 13.17817333 67.37050709 20.93581195 67.2734375 30.3515625 C66.69489121 38.07102301 63.87391791 44.29412952 58.12109375 49.52734375 C51.87554949 53.86356877 45.50245782 55.2321305 38 55 C37.82609741 53.88757935 37.82609741 53.88757935 37.64868164 52.75268555 C37.12260449 49.39720196 36.59259938 46.04235041 36.0625 42.6875 C35.88009766 41.52025391 35.69769531 40.35300781 35.50976562 39.15039062 C35.33251953 38.03212891 35.15527344 36.91386719 34.97265625 35.76171875 C34.81031494 34.73006592 34.64797363 33.69841309 34.48071289 32.63549805 C34.04662212 29.90509209 34.04662212 29.90509209 33 27 C30.69 26.67 28.38 26.34 26 26 C22.82956306 31.99793479 20.46706093 38.01136946 18.3125 44.4375 C17.70696231 46.22872364 17.09902177 48.0191374 16.48828125 49.80859375 C16.22571533 50.59032959 15.96314941 51.37206543 15.69262695 52.17749023 C15 54 15 54 14 55 C9.38 55 4.76 55 0 55 C0 36.85 0 18.7 0 0 Z " fill="#010101" transform="translate(98,71)"/>
<path d="M0 0 C0.33 0 0.66 0 1 0 C1.861168 5.56743587 2.71543929 11.13587116 3.56347656 16.70532227 C3.85262126 18.59786166 4.14361281 20.49011988 4.43652344 22.38208008 C4.85843868 25.10946078 5.27359162 27.83780038 5.6875 30.56640625 C5.81874268 31.40522842 5.94998535 32.2440506 6.08520508 33.10829163 C6.20532959 33.90859299 6.3254541 34.70889435 6.44921875 35.53344727 C6.55580811 36.22849869 6.66239746 36.92355011 6.7722168 37.6396637 C7.07201816 40.74626694 7 43.87896419 7 47 C-0.92 47 -8.84 47 -17 47 C-14.18226586 37.53023007 -11.02083832 28.25035778 -7.6262207 18.97509766 C-6.79893764 16.7129141 -5.97829975 14.44839123 -5.15820312 12.18359375 C-4.63319884 10.74204674 -4.10782274 9.30063507 -3.58203125 7.859375 C-3.3372554 7.18348328 -3.09247955 6.50759155 -2.84028625 5.81121826 C-1.11518334 1.11518334 -1.11518334 1.11518334 0 0 Z " fill="#576164" transform="translate(124,125)"/>
</svg>
